<?xml version="1.0" encoding="utf-8"?>
<!-- Generator: Adobe Illustrator 22.0.1, SVG Export Plug-In . SVG Version: 6.00 Build 0)  -->
<svg version="1.1" id="Layer_1" xmlns="http://www.w3.org/2000/svg" xmlns:xlink="http://www.w3.org/1999/xlink" x="0px" y="0px"
	 viewBox="0 0 512 512" style="enable-background:new 0 0 512 512;" xml:space="preserve">
<style type="text/css">
	.st0{fill:none;}
	.st1{fill:none;stroke:#1F191A;stroke-width:0.3;stroke-linecap:square;}
	.st2{fill:url(#SVGID_1_);}
	.st3{fill:#1F191A;}
	.st4{fill:#333333;}
	.st5{fill:none;stroke:#1F191A;stroke-width:2.12;}
	.st6{fill:#FFFFFF;}
	.st7{fill:#555577;}
	.st8{fill:none;stroke:#1F191A;stroke-width:4.23;}
	.st9{fill:#FFDE9C;}
</style>
<pattern  y="512" width="72" height="74.8" patternUnits="userSpaceOnUse" id="USGS_8_Sewage_Disposal" viewBox="21.6 -74.8 72 74.8" style="overflow:visible;">
	<g>
		<rect x="21.6" y="-74.8" class="st0" width="72" height="74.8"/>
		<rect x="21.6" y="-74.8" class="st0" width="72" height="74.8"/>
		<line class="st1" x1="21.6" y1="-73.9" x2="93.7" y2="-73.9"/>
		<line class="st1" x1="21.6" y1="-72.2" x2="93.7" y2="-72.2"/>
		<line class="st1" x1="21.6" y1="-70.6" x2="93.7" y2="-70.6"/>
		<line class="st1" x1="21.6" y1="-68.8" x2="93.7" y2="-68.8"/>
		<line class="st1" x1="21.6" y1="-67.2" x2="93.7" y2="-67.2"/>
		<line class="st1" x1="21.6" y1="-65.4" x2="93.7" y2="-65.4"/>
		<line class="st1" x1="21.6" y1="-63.8" x2="93.7" y2="-63.8"/>
		<line class="st1" x1="21.6" y1="-62" x2="93.7" y2="-62"/>
		<line class="st1" x1="21.6" y1="-60.3" x2="93.7" y2="-60.3"/>
		<line class="st1" x1="21.6" y1="-58.7" x2="93.7" y2="-58.7"/>
		<line class="st1" x1="21.6" y1="-57" x2="93.7" y2="-57"/>
		<line class="st1" x1="21.6" y1="-55.2" x2="93.7" y2="-55.2"/>
		<line class="st1" x1="21.6" y1="-53.5" x2="93.7" y2="-53.5"/>
		<line class="st1" x1="21.6" y1="-51.8" x2="93.7" y2="-51.8"/>
		<line class="st1" x1="21.6" y1="-50.2" x2="93.7" y2="-50.2"/>
		<line class="st1" x1="21.6" y1="-48.5" x2="93.7" y2="-48.5"/>
		<line class="st1" x1="21.6" y1="-46.8" x2="93.7" y2="-46.8"/>
		<line class="st1" x1="21.6" y1="-45" x2="93.7" y2="-45"/>
		<line class="st1" x1="21.6" y1="-43.3" x2="93.7" y2="-43.3"/>
		<line class="st1" x1="21.6" y1="-41.7" x2="93.7" y2="-41.7"/>
		<line class="st1" x1="21.6" y1="-40" x2="93.7" y2="-40"/>
		<line class="st1" x1="21.6" y1="-38.2" x2="93.7" y2="-38.2"/>
		<line class="st1" x1="21.6" y1="-36.5" x2="93.7" y2="-36.5"/>
		<line class="st1" x1="21.6" y1="-34.8" x2="93.7" y2="-34.8"/>
		<line class="st1" x1="21.6" y1="-33.2" x2="93.7" y2="-33.2"/>
		<line class="st1" x1="21.6" y1="-31.5" x2="93.7" y2="-31.5"/>
		<line class="st1" x1="21.6" y1="-29.8" x2="93.7" y2="-29.8"/>
		<line class="st1" x1="21.6" y1="-28" x2="93.7" y2="-28"/>
		<line class="st1" x1="21.6" y1="-26.4" x2="93.7" y2="-26.4"/>
		<line class="st1" x1="21.6" y1="-24.6" x2="93.7" y2="-24.6"/>
		<line class="st1" x1="21.6" y1="-23" x2="93.7" y2="-23"/>
		<line class="st1" x1="21.6" y1="-21.2" x2="93.7" y2="-21.2"/>
		<line class="st1" x1="21.6" y1="-19.5" x2="93.7" y2="-19.5"/>
		<line class="st1" x1="21.6" y1="-17.9" x2="93.7" y2="-17.9"/>
		<line class="st1" x1="21.6" y1="-16.1" x2="93.7" y2="-16.1"/>
		<line class="st1" x1="21.6" y1="-14.4" x2="93.7" y2="-14.4"/>
		<line class="st1" x1="21.6" y1="-12.8" x2="93.7" y2="-12.8"/>
		<line class="st1" x1="21.6" y1="-11.1" x2="93.7" y2="-11.1"/>
		<line class="st1" x1="21.6" y1="-9.4" x2="93.7" y2="-9.4"/>
		<line class="st1" x1="21.6" y1="-7.7" x2="93.7" y2="-7.7"/>
		<line class="st1" x1="21.6" y1="-5.9" x2="93.7" y2="-5.9"/>
		<line class="st1" x1="21.6" y1="-4.2" x2="93.7" y2="-4.2"/>
		<line class="st1" x1="21.6" y1="-2.5" x2="93.7" y2="-2.5"/>
		<line class="st1" x1="21.6" y1="-0.9" x2="93.7" y2="-0.9"/>
		<line class="st1" x1="0.2" y1="-7.7" x2="11.4" y2="-7.7"/>
	</g>
</pattern>
<title>facebook</title>
<pattern  id="SVGID_1_" xlink:href="#USGS_8_Sewage_Disposal" patternTransform="matrix(2.7 0 0 -2.7 13180.1758 -31197.5898)">
</pattern>
<path class="st2" d="M511.4,281.4c0,126-102.1,228-227.9,228s-227.8-102-227.8-228s102-228,227.8-228S511.4,155.5,511.4,281.4z"/>
<path class="st3" d="M469.1,245.4c0,126-102.1,228-227.9,228s-227.8-102-227.8-228s102-228,227.8-228S469.1,119.5,469.1,245.4z"/>
<path class="st4" d="M462.7,234.8c0,126-102.1,228-227.9,228S7,360.9,7,234.8s102-228,227.8-228S462.7,109,462.7,234.8z"/>
<path class="st5" d="M469.1,245.4c0,126-102.1,228-227.9,228s-227.8-102-227.8-228s102-228,227.8-228S469.1,119.5,469.1,245.4z"/>
<path class="st6" d="M458.5,232.7c0,126-102.1,228-227.9,228S2.8,358.7,2.8,232.7s102-228,227.8-228S458.5,106.8,458.5,232.7z"/>
<path class="st7" d="M458.5,232.7c0,126-102.1,228-227.9,228S2.8,358.7,2.8,232.7s102-228,227.8-228S458.5,106.8,458.5,232.7z"/>
<path class="st8" d="M458.5,232.7c0,126-102.1,228-227.9,228S2.8,358.7,2.8,232.7s102-228,227.8-228S458.5,106.8,458.5,232.7z"/>
<path class="st9" d="M157.1,168h32v-16.3c0-18.4,2-32.1,5.8-41c3.9-9.1,11.1-16.2,21.6-21.9c10.3-5.7,23.6-8.5,39.6-8.5
	c16.3,0,32.5,2.4,48,7.3l-7.8,40.1c-8.7-2.1-17.5-3.2-26.4-3.3c-8.4,0-14.3,2-17.8,6c-3.8,3.8-5.4,11.3-5.4,22.3V168h43v45.3h-43
	v172h-57.5v-172h-32L157.1,168z"/>
</svg>
