<?xml version="1.0" encoding="utf-8"?>
<!-- Generator: Adobe Illustrator 22.0.1, SVG Export Plug-In . SVG Version: 6.00 Build 0)  -->
<svg version="1.1" id="Layer_1" xmlns="http://www.w3.org/2000/svg" xmlns:xlink="http://www.w3.org/1999/xlink" x="0px" y="0px"
	 viewBox="0 0 512 512" style="enable-background:new 0 0 512 512;" xml:space="preserve">
<style type="text/css">
	.st0{fill:none;}
	.st1{fill:none;stroke:#1F191A;stroke-width:0.3;stroke-linecap:square;}
	.st2{fill:url(#SVGID_1_);}
	.st3{fill:url(#SVGID_2_);}
	.st4{fill:#1F191A;}
	.st5{fill:#333333;}
	.st6{fill:none;stroke:#1F191A;stroke-width:2.12;}
	.st7{fill:#FFFFFF;}
	.st8{fill:none;stroke:#1F191A;stroke-width:4.23;}
	.st9{fill:#262626;}
</style>
<pattern  y="512" width="72" height="74.8" patternUnits="userSpaceOnUse" id="USGS_8_Sewage_Disposal" viewBox="21.6 -74.8 72 74.8" style="overflow:visible;">
	<g>
		<rect x="21.6" y="-74.8" class="st0" width="72" height="74.8"/>
		<rect x="21.6" y="-74.8" class="st0" width="72" height="74.8"/>
		<line class="st1" x1="21.6" y1="-73.9" x2="93.7" y2="-73.9"/>
		<line class="st1" x1="21.6" y1="-72.2" x2="93.7" y2="-72.2"/>
		<line class="st1" x1="21.6" y1="-70.6" x2="93.7" y2="-70.6"/>
		<line class="st1" x1="21.6" y1="-68.8" x2="93.7" y2="-68.8"/>
		<line class="st1" x1="21.6" y1="-67.2" x2="93.7" y2="-67.2"/>
		<line class="st1" x1="21.6" y1="-65.4" x2="93.7" y2="-65.4"/>
		<line class="st1" x1="21.6" y1="-63.8" x2="93.7" y2="-63.8"/>
		<line class="st1" x1="21.6" y1="-62" x2="93.7" y2="-62"/>
		<line class="st1" x1="21.6" y1="-60.3" x2="93.7" y2="-60.3"/>
		<line class="st1" x1="21.6" y1="-58.7" x2="93.7" y2="-58.7"/>
		<line class="st1" x1="21.6" y1="-57" x2="93.7" y2="-57"/>
		<line class="st1" x1="21.6" y1="-55.2" x2="93.7" y2="-55.2"/>
		<line class="st1" x1="21.6" y1="-53.5" x2="93.7" y2="-53.5"/>
		<line class="st1" x1="21.6" y1="-51.8" x2="93.7" y2="-51.8"/>
		<line class="st1" x1="21.6" y1="-50.2" x2="93.7" y2="-50.2"/>
		<line class="st1" x1="21.6" y1="-48.5" x2="93.7" y2="-48.5"/>
		<line class="st1" x1="21.6" y1="-46.8" x2="93.7" y2="-46.8"/>
		<line class="st1" x1="21.6" y1="-45" x2="93.7" y2="-45"/>
		<line class="st1" x1="21.6" y1="-43.3" x2="93.7" y2="-43.3"/>
		<line class="st1" x1="21.6" y1="-41.7" x2="93.7" y2="-41.7"/>
		<line class="st1" x1="21.6" y1="-40" x2="93.7" y2="-40"/>
		<line class="st1" x1="21.6" y1="-38.2" x2="93.7" y2="-38.2"/>
		<line class="st1" x1="21.6" y1="-36.5" x2="93.7" y2="-36.5"/>
		<line class="st1" x1="21.6" y1="-34.8" x2="93.7" y2="-34.8"/>
		<line class="st1" x1="21.6" y1="-33.2" x2="93.7" y2="-33.2"/>
		<line class="st1" x1="21.6" y1="-31.5" x2="93.7" y2="-31.5"/>
		<line class="st1" x1="21.6" y1="-29.8" x2="93.7" y2="-29.8"/>
		<line class="st1" x1="21.6" y1="-28" x2="93.7" y2="-28"/>
		<line class="st1" x1="21.6" y1="-26.4" x2="93.7" y2="-26.4"/>
		<line class="st1" x1="21.6" y1="-24.6" x2="93.7" y2="-24.6"/>
		<line class="st1" x1="21.6" y1="-23" x2="93.7" y2="-23"/>
		<line class="st1" x1="21.6" y1="-21.2" x2="93.7" y2="-21.2"/>
		<line class="st1" x1="21.6" y1="-19.5" x2="93.7" y2="-19.5"/>
		<line class="st1" x1="21.6" y1="-17.9" x2="93.7" y2="-17.9"/>
		<line class="st1" x1="21.6" y1="-16.1" x2="93.7" y2="-16.1"/>
		<line class="st1" x1="21.6" y1="-14.4" x2="93.7" y2="-14.4"/>
		<line class="st1" x1="21.6" y1="-12.8" x2="93.7" y2="-12.8"/>
		<line class="st1" x1="21.6" y1="-11.1" x2="93.7" y2="-11.1"/>
		<line class="st1" x1="21.6" y1="-9.4" x2="93.7" y2="-9.4"/>
		<line class="st1" x1="21.6" y1="-7.7" x2="93.7" y2="-7.7"/>
		<line class="st1" x1="21.6" y1="-5.9" x2="93.7" y2="-5.9"/>
		<line class="st1" x1="21.6" y1="-4.2" x2="93.7" y2="-4.2"/>
		<line class="st1" x1="21.6" y1="-2.5" x2="93.7" y2="-2.5"/>
		<line class="st1" x1="21.6" y1="-0.9" x2="93.7" y2="-0.9"/>
		<line class="st1" x1="0.2" y1="-7.7" x2="11.4" y2="-7.7"/>
	</g>
</pattern>
<title>github</title>
<pattern  id="SVGID_1_" xlink:href="#USGS_8_Sewage_Disposal" patternTransform="matrix(2.7 0 0 -2.7 13187.0352 -31256.709)">
</pattern>
<path class="st2" d="M511.3,281.3c0,125.9-102,228.1-227.8,228.1S55.7,407.1,55.7,281.3S157.8,53.4,283.5,53.4
	S511.3,155.4,511.3,281.3z"/>
<path class="st3" d="M494.4,264.3c0,125.9-102,228.1-227.8,228.1S38.8,390.2,38.8,264.3S140.9,36.5,266.6,36.5
	S494.4,138.5,494.4,264.3z"/>
<path class="st4" d="M469,245.3c0,125.9-102,228.1-227.8,228.1S13.4,371.2,13.4,245.3S115.5,17.5,241.2,17.5S469,119.4,469,245.3z"
	/>
<path class="st5" d="M462.7,234.7c0,125.9-102,228.1-227.8,228.1S7,360.6,7,234.7S109.2,6.9,234.9,6.9S462.7,108.8,462.7,234.7z"/>
<path class="st6" d="M469,245.3c0,125.9-102,228.1-227.8,228.1S13.4,371.2,13.4,245.3S115.5,17.5,241.2,17.5S469,119.4,469,245.3z"
	/>
<path class="st7" d="M458.4,232.6c0,125.9-102,228.1-227.8,228.1S2.8,358.5,2.8,232.6S105,4.8,230.6,4.8S458.4,106.7,458.4,232.6z"
	/>
<path class="st7" d="M458.4,232.6c0,125.9-102,228.1-227.8,228.1S2.8,358.5,2.8,232.6S105,4.8,230.6,4.8S458.4,106.7,458.4,232.6z"
	/>
<path class="st8" d="M458.4,232.6c0,125.9-102,228.1-227.8,228.1S2.8,358.5,2.8,232.6S105,4.8,230.6,4.8S458.4,106.7,458.4,232.6z"
	/>
<g id="Github">
	<circle id="back" class="st9" cx="230.6" cy="232.7" r="218"/>
	<g id="Github-2">
		<path class="st7" d="M230.6,113.7c-67.4,0-122.1,54.7-122.1,122.2c0,52.5,33.6,99.2,83.5,115.8c6.1,1.1,8.3-2.6,8.3-5.9
			c0-2.9-0.1-12.5-0.2-22.7c-34,7.4-41.1-14.4-41.1-14.4c-5.6-14.1-13.6-17.9-13.6-17.9c-11.1-7.6,0.9-7.4,0.9-7.4
			c12.3,0.9,18.7,12.6,18.7,12.6c10.9,18.7,28.6,13.3,35.5,10.1c1.1-7.9,4.3-13.3,7.7-16.3c-27.1-3.1-55.7-13.5-55.7-60.3
			c-0.2-12.1,4.3-23.9,12.6-32.8c-1.3-3.1-5.5-15.5,1.2-32.3c0,0,10.2-3.3,33.6,12.5c20-5.5,41.1-5.5,61.1,0
			c23.3-15.8,33.5-12.5,33.5-12.5c6.6,16.8,2.5,29.2,1.2,32.3c8.2,8.9,12.7,20.6,12.6,32.8c0,46.9-28.6,57.2-55.7,60.2
			c4.4,3.8,8.3,11.2,8.3,22.6c0,16.3-0.1,29.5-0.1,33.5c0,3.3,2.2,7.1,8.4,5.9c64-21.4,98.5-90.5,77.1-154.5
			C329.8,147.3,283.2,113.7,230.6,113.7z"/>
		<path class="st7" d="M154.8,288.9c-0.3,0.6-1.2,0.8-2.1,0.4c-0.9-0.4-1.4-1.2-1.1-1.8c0.3-0.6,1.2-0.8,2.1-0.4
			C154.6,287.5,155.1,288.3,154.8,288.9L154.8,288.9z"/>
		<path class="st7" d="M159.7,294.5c-0.6,0.5-1.7,0.3-2.5-0.6c-0.8-0.9-0.9-2-0.4-2.6c0.6-0.6,1.7-0.3,2.5,0.6
			S160.3,293.9,159.7,294.5L159.7,294.5z"/>
		<path class="st7" d="M164.5,301.5c-0.7,0.5-2,0-2.7-1.1s-0.7-2.4,0-2.9c0.7-0.5,2-0.1,2.7,1S165.3,301,164.5,301.5L164.5,301.5z"
			/>
		<path class="st7" d="M171.1,308.3c-0.7,0.7-2.1,0.5-3.1-0.5s-1.4-2.4-0.7-3.1c0.7-0.7,2.1-0.5,3.2,0.5
			C171.5,306.2,171.8,307.5,171.1,308.3z"/>
		<path class="st7" d="M180.2,312.2c-0.3,1-1.7,1.4-3,1c-1.3-0.4-2.3-1.5-2-2.5c0.3-1,1.7-1.4,3.1-1
			C179.6,310.2,180.5,311.3,180.2,312.2L180.2,312.2z"/>
		<path class="st7" d="M190.2,313c0,1-1.1,1.8-2.6,1.9c-1.4,0-2.6-0.8-2.7-1.8c0-1,1.1-1.8,2.6-1.9S190.3,312,190.2,313L190.2,313z"
			/>
		<path class="st7" d="M199.5,311.4c0.2,1-0.9,2-2.3,2.3c-1.4,0.3-2.7-0.3-2.9-1.3c-0.2-1,0.9-2,2.3-2.3
			C198,309.8,199.3,310.4,199.5,311.4L199.5,311.4z"/>
	</g>
</g>
</svg>
