<?xml version="1.0" encoding="utf-8"?>
<!-- Generator: Adobe Illustrator 22.0.1, SVG Export Plug-In . SVG Version: 6.00 Build 0)  -->
<svg version="1.1" id="Layer_1" xmlns="http://www.w3.org/2000/svg" xmlns:xlink="http://www.w3.org/1999/xlink" x="0px" y="0px"
	 viewBox="0 0 512 512" style="enable-background:new 0 0 512 512;" xml:space="preserve">
<style type="text/css">
	.st0{fill:none;}
	.st1{fill:none;stroke:#1F191A;stroke-width:0.3;stroke-linecap:square;}
	.st2{fill:url(#SVGID_2_);}
	.st3{fill:#1F191A;}
	.st4{fill:#333333;}
	.st5{fill:none;stroke:#1F191A;stroke-width:2.12;}
	.st6{fill:#FFFFFF;}
	.st7{fill:#3E5B77;}
	.st8{fill:none;stroke:#1F191A;stroke-width:4.23;}
	.st9{fill:#FFDE9C;}
</style>
<pattern  y="512" width="72" height="74.8" patternUnits="userSpaceOnUse" id="SVGID_1_" viewBox="21.5 -74.8 72 74.8" style="overflow:visible;">
	<g>
		<rect x="21.5" y="-74.8" class="st0" width="72" height="74.8"/>
		<g>
			<rect x="21.6" y="-74.8" class="st0" width="72" height="74.8"/>
			<rect x="21.6" y="-74.8" class="st0" width="72" height="74.8"/>
			<line class="st1" x1="21.6" y1="-0.9" x2="93.6" y2="-0.9"/>
			<line class="st1" x1="21.6" y1="-2.6" x2="93.6" y2="-2.6"/>
			<line class="st1" x1="21.6" y1="-4.2" x2="93.6" y2="-4.2"/>
			<line class="st1" x1="21.6" y1="-6" x2="93.6" y2="-6"/>
			<line class="st1" x1="21.6" y1="-7.6" x2="93.6" y2="-7.6"/>
			<line class="st1" x1="21.6" y1="-9.4" x2="93.6" y2="-9.4"/>
			<line class="st1" x1="21.6" y1="-11" x2="93.6" y2="-11"/>
			<line class="st1" x1="21.6" y1="-12.8" x2="93.6" y2="-12.8"/>
			<line class="st1" x1="21.6" y1="-14.5" x2="93.6" y2="-14.5"/>
			<line class="st1" x1="21.6" y1="-16.1" x2="93.6" y2="-16.1"/>
			<line class="st1" x1="21.6" y1="-17.8" x2="93.6" y2="-17.8"/>
			<line class="st1" x1="21.6" y1="-19.6" x2="93.6" y2="-19.6"/>
			<line class="st1" x1="21.6" y1="-21.3" x2="93.6" y2="-21.3"/>
			<line class="st1" x1="21.6" y1="-23" x2="93.6" y2="-23"/>
			<line class="st1" x1="21.6" y1="-24.6" x2="93.6" y2="-24.6"/>
			<line class="st1" x1="21.6" y1="-26.3" x2="93.6" y2="-26.3"/>
			<line class="st1" x1="21.6" y1="-28" x2="93.6" y2="-28"/>
			<line class="st1" x1="21.6" y1="-29.8" x2="93.6" y2="-29.8"/>
			<line class="st1" x1="21.6" y1="-31.5" x2="93.6" y2="-31.5"/>
			<line class="st1" x1="21.6" y1="-33.1" x2="93.6" y2="-33.1"/>
			<line class="st1" x1="21.6" y1="-34.8" x2="93.6" y2="-34.8"/>
			<line class="st1" x1="21.6" y1="-36.6" x2="93.6" y2="-36.6"/>
			<line class="st1" x1="21.6" y1="-38.3" x2="93.6" y2="-38.3"/>
			<line class="st1" x1="21.6" y1="-40" x2="93.6" y2="-40"/>
			<line class="st1" x1="21.6" y1="-41.6" x2="93.6" y2="-41.6"/>
			<line class="st1" x1="21.6" y1="-43.3" x2="93.6" y2="-43.3"/>
			<line class="st1" x1="21.6" y1="-45" x2="93.6" y2="-45"/>
			<line class="st1" x1="21.6" y1="-46.8" x2="93.6" y2="-46.8"/>
			<line class="st1" x1="21.6" y1="-48.4" x2="93.6" y2="-48.4"/>
			<line class="st1" x1="21.6" y1="-50.2" x2="93.6" y2="-50.2"/>
			<line class="st1" x1="21.6" y1="-51.8" x2="93.6" y2="-51.8"/>
			<line class="st1" x1="21.6" y1="-53.6" x2="93.6" y2="-53.6"/>
			<line class="st1" x1="21.6" y1="-55.3" x2="93.6" y2="-55.3"/>
			<line class="st1" x1="21.6" y1="-56.9" x2="93.6" y2="-56.9"/>
			<line class="st1" x1="21.6" y1="-58.7" x2="93.6" y2="-58.7"/>
			<line class="st1" x1="21.6" y1="-60.4" x2="93.6" y2="-60.4"/>
			<line class="st1" x1="21.6" y1="-62" x2="93.6" y2="-62"/>
			<line class="st1" x1="21.6" y1="-63.7" x2="93.6" y2="-63.7"/>
			<line class="st1" x1="21.6" y1="-65.4" x2="93.6" y2="-65.4"/>
			<line class="st1" x1="21.6" y1="-67.1" x2="93.6" y2="-67.1"/>
			<line class="st1" x1="21.6" y1="-68.9" x2="93.6" y2="-68.9"/>
			<line class="st1" x1="21.6" y1="-70.6" x2="93.6" y2="-70.6"/>
			<line class="st1" x1="21.6" y1="-72.3" x2="93.6" y2="-72.3"/>
			<line class="st1" x1="21.6" y1="-73.9" x2="93.6" y2="-73.9"/>
			<line class="st1" x1="0.2" y1="-67.1" x2="11.3" y2="-67.1"/>
		</g>
	</g>
</pattern>
<title>linkedin</title>
<pattern  id="SVGID_2_" xlink:href="#SVGID_1_" patternTransform="matrix(2.7 0 0 2.7 26648.6426 45992.8477)">
</pattern>
<path class="st2" d="M511.4,281.4c0,126-102.1,228-227.9,228s-227.8-102-227.8-228s102-228,227.8-228S511.4,155.5,511.4,281.4z"/>
<path class="st3" d="M469.1,245.4c0,126-102.1,228-227.9,228s-227.8-102-227.8-228s102-228,227.8-228S469.1,119.5,469.1,245.4z"/>
<path class="st4" d="M462.7,234.8c0,126-102.1,228-227.9,228S7,360.9,7,234.8s102-228,227.8-228S462.7,109,462.7,234.8z"/>
<path class="st5" d="M469.1,245.4c0,126-102.1,228-227.9,228s-227.8-102-227.8-228s102-228,227.8-228S469.1,119.5,469.1,245.4z"/>
<path class="st6" d="M458.5,232.7c0,126-102.1,228-227.9,228S2.8,358.7,2.8,232.7s102-228,227.8-228S458.5,106.8,458.5,232.7z"/>
<path class="st7" d="M458.5,232.7c0,126-102.1,228-227.9,228S2.8,358.7,2.8,232.7s102-228,227.8-228S458.5,106.8,458.5,232.7z"/>
<path class="st8" d="M458.5,232.7c0,126-102.1,228-227.9,228S2.8,358.7,2.8,232.7s102-228,227.8-228S458.5,106.8,458.5,232.7z"/>
<g id="Linkedin">
	<g id="Linkedin-2">
		<path class="st9" d="M98.7,178.8h57.9v186H98.7C98.7,364.9,98.7,178.8,98.7,178.8z M127.7,86.4c18.5,0,33.5,15.1,33.5,33.6
			s-15.1,33.5-33.6,33.5s-33.5-15-33.5-33.5C94.1,101.4,109.1,86.4,127.7,86.4L127.7,86.4"/>
		<path class="st9" d="M192.9,178.8h55.4v25.5h0.8c7.7-14.6,26.6-30.1,54.7-30.1c58.5,0,69.4,38.5,69.4,88.7v102h-57.8v-90.5
			c0-21.6-0.3-49.4-30.1-49.4c-30.1,0-34.6,23.5-34.6,47.8v92h-57.8L192.9,178.8L192.9,178.8z"/>
	</g>
</g>
</svg>
