<?xml version="1.0" encoding="utf-8"?>
<!-- Generator: Adobe Illustrator 22.0.1, SVG Export Plug-In . SVG Version: 6.00 Build 0)  -->
<svg version="1.1" id="Layer_1" xmlns="http://www.w3.org/2000/svg" xmlns:xlink="http://www.w3.org/1999/xlink" x="0px" y="0px"
	 viewBox="0 0 512 512" style="enable-background:new 0 0 512 512;" xml:space="preserve">
<style type="text/css">
	.st0{fill:none;}
	.st1{fill:none;stroke:#1F191A;stroke-width:0.3;stroke-linecap:square;}
	.st2{fill:url(#SVGID_2_);}
	.st3{fill:#1F191A;}
	.st4{fill:#333333;}
	.st5{fill:none;stroke:#1F191A;stroke-width:2.12;}
	.st6{fill:#FFFFFF;}
	.st7{fill:#1E7188;}
	.st8{fill:none;stroke:#1F191A;stroke-width:4.23;}
	.st9{fill:#FFDE9C;}
</style>
<pattern  y="512" width="72" height="74.8" patternUnits="userSpaceOnUse" id="SVGID_1_" viewBox="21.5 -74.8 72 74.8" style="overflow:visible;">
	<g>
		<rect x="21.5" y="-74.8" class="st0" width="72" height="74.8"/>
		<g>
			<rect x="21.6" y="-74.8" class="st0" width="72" height="74.8"/>
			<rect x="21.6" y="-74.8" class="st0" width="72" height="74.8"/>
			<line class="st1" x1="21.6" y1="-0.9" x2="93.6" y2="-0.9"/>
			<line class="st1" x1="21.6" y1="-2.6" x2="93.6" y2="-2.6"/>
			<line class="st1" x1="21.6" y1="-4.2" x2="93.6" y2="-4.2"/>
			<line class="st1" x1="21.6" y1="-6" x2="93.6" y2="-6"/>
			<line class="st1" x1="21.6" y1="-7.6" x2="93.6" y2="-7.6"/>
			<line class="st1" x1="21.6" y1="-9.4" x2="93.6" y2="-9.4"/>
			<line class="st1" x1="21.6" y1="-11" x2="93.6" y2="-11"/>
			<line class="st1" x1="21.6" y1="-12.8" x2="93.6" y2="-12.8"/>
			<line class="st1" x1="21.6" y1="-14.5" x2="93.6" y2="-14.5"/>
			<line class="st1" x1="21.6" y1="-16.1" x2="93.6" y2="-16.1"/>
			<line class="st1" x1="21.6" y1="-17.8" x2="93.6" y2="-17.8"/>
			<line class="st1" x1="21.6" y1="-19.6" x2="93.6" y2="-19.6"/>
			<line class="st1" x1="21.6" y1="-21.3" x2="93.6" y2="-21.3"/>
			<line class="st1" x1="21.6" y1="-23" x2="93.6" y2="-23"/>
			<line class="st1" x1="21.6" y1="-24.6" x2="93.6" y2="-24.6"/>
			<line class="st1" x1="21.6" y1="-26.3" x2="93.6" y2="-26.3"/>
			<line class="st1" x1="21.6" y1="-28" x2="93.6" y2="-28"/>
			<line class="st1" x1="21.6" y1="-29.8" x2="93.6" y2="-29.8"/>
			<line class="st1" x1="21.6" y1="-31.5" x2="93.6" y2="-31.5"/>
			<line class="st1" x1="21.6" y1="-33.1" x2="93.6" y2="-33.1"/>
			<line class="st1" x1="21.6" y1="-34.8" x2="93.6" y2="-34.8"/>
			<line class="st1" x1="21.6" y1="-36.6" x2="93.6" y2="-36.6"/>
			<line class="st1" x1="21.6" y1="-38.3" x2="93.6" y2="-38.3"/>
			<line class="st1" x1="21.6" y1="-40" x2="93.6" y2="-40"/>
			<line class="st1" x1="21.6" y1="-41.6" x2="93.6" y2="-41.6"/>
			<line class="st1" x1="21.6" y1="-43.3" x2="93.6" y2="-43.3"/>
			<line class="st1" x1="21.6" y1="-45" x2="93.6" y2="-45"/>
			<line class="st1" x1="21.6" y1="-46.8" x2="93.6" y2="-46.8"/>
			<line class="st1" x1="21.6" y1="-48.4" x2="93.6" y2="-48.4"/>
			<line class="st1" x1="21.6" y1="-50.2" x2="93.6" y2="-50.2"/>
			<line class="st1" x1="21.6" y1="-51.8" x2="93.6" y2="-51.8"/>
			<line class="st1" x1="21.6" y1="-53.6" x2="93.6" y2="-53.6"/>
			<line class="st1" x1="21.6" y1="-55.3" x2="93.6" y2="-55.3"/>
			<line class="st1" x1="21.6" y1="-56.9" x2="93.6" y2="-56.9"/>
			<line class="st1" x1="21.6" y1="-58.7" x2="93.6" y2="-58.7"/>
			<line class="st1" x1="21.6" y1="-60.4" x2="93.6" y2="-60.4"/>
			<line class="st1" x1="21.6" y1="-62" x2="93.6" y2="-62"/>
			<line class="st1" x1="21.6" y1="-63.7" x2="93.6" y2="-63.7"/>
			<line class="st1" x1="21.6" y1="-65.4" x2="93.6" y2="-65.4"/>
			<line class="st1" x1="21.6" y1="-67.1" x2="93.6" y2="-67.1"/>
			<line class="st1" x1="21.6" y1="-68.9" x2="93.6" y2="-68.9"/>
			<line class="st1" x1="21.6" y1="-70.6" x2="93.6" y2="-70.6"/>
			<line class="st1" x1="21.6" y1="-72.3" x2="93.6" y2="-72.3"/>
			<line class="st1" x1="21.6" y1="-73.9" x2="93.6" y2="-73.9"/>
			<line class="st1" x1="0.2" y1="-67.1" x2="11.3" y2="-67.1"/>
		</g>
	</g>
</pattern>
<title>twitter</title>
<pattern  id="SVGID_2_" xlink:href="#SVGID_1_" patternTransform="matrix(2.7 0 0 2.7 26655.502 46051.9688)">
</pattern>
<path class="st2" d="M511.3,281.3c0,125.9-102,228.1-227.8,228.1S55.7,407.1,55.7,281.3S157.8,53.4,283.5,53.4
	S511.3,155.4,511.3,281.3z"/>
<path class="st3" d="M469,245.3c0,125.9-102,228.1-227.8,228.1S13.4,371.2,13.4,245.3S115.5,17.5,241.2,17.5S469,119.4,469,245.3z"
	/>
<path class="st4" d="M462.7,234.7c0,125.9-102,228.1-227.8,228.1S7,360.6,7,234.7S109.2,6.9,234.9,6.9S462.7,108.8,462.7,234.7z"/>
<path class="st5" d="M469,245.3c0,125.9-102,228.1-227.8,228.1S13.4,371.2,13.4,245.3S115.5,17.5,241.2,17.5S469,119.4,469,245.3z"
	/>
<path class="st6" d="M458.4,232.6c0,125.9-102,228.1-227.8,228.1S2.8,358.5,2.8,232.6S105,4.8,230.6,4.8S458.4,106.7,458.4,232.6z"
	/>
<path class="st7" d="M458.4,232.6c0,125.9-102,228.1-227.8,228.1S2.8,358.5,2.8,232.6S105,4.8,230.6,4.8S458.4,106.7,458.4,232.6z"
	/>
<path class="st8" d="M458.4,232.6c0,125.9-102,228.1-227.8,228.1S2.8,358.5,2.8,232.6S105,4.8,230.6,4.8S458.4,106.7,458.4,232.6z"
	/>
<g>
	<g>
		<path class="st9" d="M395.5,149.8c-11.4,5-23.5,8.4-36.3,10c13.1-7.8,23.1-20.2,27.8-35c-12.3,7.2-25.8,12.5-40.2,15.4
			c-11.5-12.3-28-20-46.2-20c-35,0-63.3,28.3-63.3,63.3c0,5,0.6,9.8,1.6,14.4c-52.6-2.6-99.2-27.8-130.5-66.1
			c-5.5,9.3-8.6,20.2-8.6,31.8c0,22,11.2,41.3,28.2,52.7c-10.4-0.3-20.1-3.2-28.7-7.9v0.8c0,30.7,21.8,56.2,50.8,62.1
			c-5.3,1.4-10.9,2.2-16.7,2.2c-4.1,0-8-0.4-11.9-1.2c8.1,25.2,31.4,43.5,59.1,44c-21.7,17-49,27.1-78.6,27.1
			c-5.1,0-10.1-0.3-15.1-0.9c28,18,61.3,28.5,97,28.5C300.3,371,364,274.6,364,190.9l-0.2-8.2C376.2,173.6,387,162.4,395.5,149.8z"
			/>
	</g>
</g>
</svg>
